<svg width="17" height="23" viewBox="0 0 17 23" fill="none" xmlns="http://www.w3.org/2000/svg">
<path fill-rule="evenodd" clip-rule="evenodd" d="M4.65608 6.33333C4.65608 4.20208 6.3838 2.47436 8.51506 2.47436C10.6463 2.47436 12.374 4.20208 12.374 6.33333C12.374 8.46459 10.6463 10.1923 8.51506 10.1923C6.3838 10.1923 4.65608 8.46459 4.65608 6.33333ZM8.51506 0.858974C5.49165 0.858974 3.0407 3.30993 3.0407 6.33333C3.0407 9.35674 5.49165 11.8077 8.51506 11.8077C11.5385 11.8077 13.9894 9.35674 13.9894 6.33333C13.9894 3.30993 11.5385 0.858974 8.51506 0.858974ZM3.45293 16.3167C4.17663 15.593 5.15817 15.1864 6.18163 15.1864H10.8483C11.8718 15.1864 12.8533 15.593 13.577 16.3167C14.3007 17.0404 14.7073 18.0219 14.7073 19.0454V21.3787C14.7073 21.8248 15.0689 22.1864 15.515 22.1864C15.961 22.1864 16.3227 21.8248 16.3227 21.3787V19.0454C16.3227 17.5935 15.7459 16.2011 14.7193 15.1744C13.6926 14.1478 12.3002 13.571 10.8483 13.571H6.18163C4.72974 13.571 3.33732 14.1478 2.31068 15.1744C1.28404 16.2011 0.707275 17.5935 0.707275 19.0454V21.3787C0.707275 21.8248 1.06889 22.1864 1.51497 22.1864C1.96104 22.1864 2.32266 21.8248 2.32266 21.3787V19.0454C2.32266 18.0219 2.72923 17.0404 3.45293 16.3167Z" fill="#121212"/>
</svg>
