<svg width="14" height="17" viewBox="0 0 14 17" fill="none" xmlns="http://www.w3.org/2000/svg">
<path fill-rule="evenodd" clip-rule="evenodd" d="M4.75 3C4.75 2.86786 4.81844 2.56987 5.10956 2.30032C5.38944 2.04117 5.94115 1.75 7 1.75C8.05885 1.75 8.61056 2.04117 8.89044 2.30032C9.18156 2.56987 9.25 2.86786 9.25 3V4.50247H4.75V3ZM3.25 3C3.25 2.46548 3.48156 1.76346 4.09044 1.19968C4.71056 0.625496 5.65885 0.25 7 0.25C8.34115 0.25 9.28944 0.625496 9.90956 1.19968C10.5184 1.76346 10.75 2.46548 10.75 3V4.50247H13.0703C13.4845 4.50247 13.8203 4.83826 13.8203 5.25247V14.7094C13.8203 15.2686 13.5963 15.8037 13.1996 16.1972C12.8031 16.5905 12.2665 16.8104 11.7083 16.8104H2.17448C1.6163 16.8104 1.07977 16.5905 0.683237 16.1972C0.2865 15.8037 0.0625 15.2686 0.0625 14.7094V5.25247C0.0625 4.83826 0.398286 4.50247 0.8125 4.50247H3.25V3ZM3.25 8V6.00247H1.5625V14.7094C1.5625 14.8668 1.62549 15.0191 1.73959 15.1322C1.8539 15.2456 2.01022 15.3104 2.17448 15.3104H11.7083C11.8726 15.3104 12.0289 15.2456 12.1432 15.1322C12.2573 15.0191 12.3203 14.8668 12.3203 14.7094V6.00247H10.75V8H9.25V6.00247H4.75V8H3.25Z" fill="#4D4D4D"/>
</svg>
