<svg width="17" height="21" viewBox="0 0 17 21" fill="none" xmlns="http://www.w3.org/2000/svg">
<path fill-rule="evenodd" clip-rule="evenodd" d="M6.30752 3.99998C6.30752 3.82776 6.39469 3.46198 6.74858 3.1343C7.09038 2.81782 7.75184 2.47434 8.99983 2.47434C10.2478 2.47434 10.9093 2.81782 11.2511 3.1343C11.605 3.46198 11.6921 3.82776 11.6921 3.99998H13.3075C13.3075 3.39442 13.0447 2.59353 12.3486 1.94899C11.6404 1.29325 10.5518 0.858952 8.99983 0.858952C7.44782 0.858952 6.35928 1.29325 5.65108 1.94899C4.95497 2.59353 4.69214 3.39442 4.69214 3.99998H6.30752ZM6.30752 4V5.8202H11.6921V4H13.3075V5.8202H16.0819C16.5279 5.8202 16.8896 6.18182 16.8896 6.62789V17.661C16.8896 18.2954 16.6355 18.9024 16.1853 19.3489C15.7353 19.7953 15.1264 20.0449 14.4929 20.0449H3.37006C2.73652 20.0449 2.12763 19.7953 1.67767 19.3489C1.2275 18.9024 0.973389 18.2954 0.973389 17.661V6.62789C0.973389 6.18182 1.335 5.8202 1.78108 5.8202H4.69214V4H6.30752ZM4.69214 9.83333V7.43558H2.58877V17.661C2.58877 17.8627 2.66948 18.0575 2.81529 18.2021C2.96131 18.3469 3.16075 18.4295 3.37006 18.4295H14.4929C14.7022 18.4295 14.9016 18.3469 15.0477 18.2021C15.1935 18.0575 15.2742 17.8627 15.2742 17.661V7.43558H13.3075V9.83333H11.6921V7.43558H6.30752V9.83333H4.69214Z" fill="#121212"/>
</svg>
