<svg width="21" height="16" viewBox="0 0 21 16" fill="none" xmlns="http://www.w3.org/2000/svg">
<path fill-rule="evenodd" clip-rule="evenodd" d="M2.07669 2.53081C2.23293 2.01864 2.70919 1.64606 3.27248 1.64606H17.2725C17.8358 1.64606 18.312 2.01864 18.4683 2.53081L10.2725 7.99467L2.07669 2.53081ZM0.522513 2.88232C0.522374 2.89032 0.522363 2.89832 0.52248 2.90631V12.8961C0.52248 14.4148 1.7537 15.6461 3.27248 15.6461H17.2725C18.7913 15.6461 20.0225 14.4148 20.0225 12.8961V2.90629M18.5225 4.29744V12.8961C18.5225 13.5864 17.9628 14.1461 17.2725 14.1461H3.27248C2.58212 14.1461 2.02248 13.5864 2.02248 12.8961V4.29744L9.85645 9.52009C10.1084 9.68804 10.4366 9.68804 10.6885 9.52009L18.5225 4.29744ZM20.0224 2.88235C20.0151 1.36987 18.7867 0.146057 17.2725 0.146057H3.27248C1.75828 0.146057 0.52991 1.36986 0.522513 2.88232" fill="#121212"/>
</svg>
