<svg width="38" height="38" viewBox="0 0 38 38" fill="none" xmlns="http://www.w3.org/2000/svg">
<circle cx="19" cy="19" r="19" fill="#E25563"/>
<path fill-rule="evenodd" clip-rule="evenodd" d="M25.2803 13.2803C25.5732 12.9874 25.5732 12.5126 25.2803 12.2197C24.9874 11.9268 24.5126 11.9268 24.2197 12.2197L18.75 17.6893L13.2803 12.2197C12.9874 11.9268 12.5126 11.9268 12.2197 12.2197C11.9268 12.5126 11.9268 12.9874 12.2197 13.2803L17.6893 18.75L12.2197 24.2197C11.9268 24.5126 11.9268 24.9874 12.2197 25.2803C12.5126 25.5732 12.9874 25.5732 13.2803 25.2803L18.75 19.8107L24.2197 25.2803C24.5126 25.5732 24.9874 25.5732 25.2803 25.2803C25.5732 24.9874 25.5732 24.5126 25.2803 24.2197L19.8107 18.75L25.2803 13.2803Z" fill="white"/>
</svg>
