<svg width="18" height="17" viewBox="0 0 18 17" fill="none" xmlns="http://www.w3.org/2000/svg">
<path d="M15.8791 8.88915L9.00763 15.5L2.13619 8.88915M2.13619 8.88915C1.68296 8.46072 1.32595 7.94577 1.08766 7.37673C0.849361 6.80769 0.734936 6.19689 0.751589 5.58278C0.768241 4.96867 0.91561 4.36456 1.18442 3.8085C1.45322 3.25243 1.83764 2.75645 2.31347 2.3518C2.78929 1.94714 3.34621 1.64257 3.94917 1.45727C4.55212 1.27197 5.18804 1.20994 5.81688 1.27511C6.44572 1.34027 7.05385 1.53121 7.603 1.83589C8.15214 2.14058 8.63039 2.55242 9.00763 3.04547C9.38651 2.556 9.86532 2.14776 10.4141 1.8463C10.9628 1.54485 11.5698 1.35667 12.1968 1.29354C12.8239 1.23042 13.4577 1.2937 14.0584 1.47944C14.6591 1.66517 15.2139 1.96936 15.6881 2.37296C16.1622 2.77657 16.5455 3.27089 16.814 3.82501C17.0824 4.37912 17.2302 4.9811 17.2481 5.59326C17.2661 6.20541 17.1537 6.81458 16.9182 7.38262C16.6826 7.95066 16.3288 8.46536 15.8791 8.89449" fill="#FA7575"/>
<path d="M15.8791 8.88915L9.00763 15.5L2.13619 8.88915M2.13619 8.88915C1.68296 8.46072 1.32595 7.94577 1.08766 7.37673C0.849361 6.80769 0.734936 6.19689 0.751589 5.58278C0.768241 4.96867 0.91561 4.36456 1.18442 3.8085C1.45322 3.25243 1.83764 2.75645 2.31347 2.3518C2.78929 1.94714 3.34621 1.64257 3.94917 1.45727C4.55212 1.27197 5.18804 1.20994 5.81688 1.27511C6.44572 1.34027 7.05385 1.53121 7.603 1.83589C8.15214 2.14058 8.63039 2.55242 9.00763 3.04547C9.38651 2.556 9.86532 2.14776 10.4141 1.8463C10.9628 1.54485 11.5698 1.35667 12.1968 1.29354C12.8239 1.23042 13.4577 1.2937 14.0584 1.47944C14.6591 1.66517 15.2139 1.96936 15.6881 2.37296C16.1622 2.77657 16.5455 3.27089 16.814 3.82501C17.0824 4.37912 17.2302 4.9811 17.2481 5.59326C17.2661 6.20541 17.1537 6.81458 16.9182 7.38262C16.6826 7.95066 16.3288 8.46536 15.8791 8.89449" stroke="#FA7575" stroke-width="1.5" stroke-linecap="round" stroke-linejoin="round"/>
</svg>
