<svg width="19" height="18" viewBox="0 0 19 18" fill="none" xmlns="http://www.w3.org/2000/svg">
<path fill-rule="evenodd" clip-rule="evenodd" d="M3.1167 0.197998C2.38735 0.197998 1.68788 0.487729 1.17216 1.00345C0.65643 1.51918 0.366699 2.21865 0.366699 2.948V14.948C0.366699 15.6773 0.65643 16.3768 1.17216 16.8925C1.68788 17.4083 2.38735 17.698 3.1167 17.698H10.1167C10.846 17.698 11.5455 17.4083 12.0612 16.8925C12.577 16.3768 12.8667 15.6773 12.8667 14.948V12.948C12.8667 12.5338 12.5309 12.198 12.1167 12.198C11.7025 12.198 11.3667 12.5338 11.3667 12.948V14.948C11.3667 15.2795 11.235 15.5975 11.0006 15.8319C10.7662 16.0663 10.4482 16.198 10.1167 16.198H3.1167C2.78518 16.198 2.46724 16.0663 2.23282 15.8319C1.9984 15.5975 1.8667 15.2795 1.8667 14.948V2.948C1.8667 2.61648 1.9984 2.29853 2.23282 2.06411C2.46724 1.82969 2.78518 1.698 3.1167 1.698H10.1167C10.4482 1.698 10.7662 1.82969 11.0006 2.06411C11.235 2.29854 11.3667 2.61648 11.3667 2.948V4.948C11.3667 5.36221 11.7025 5.698 12.1167 5.698C12.5309 5.698 12.8667 5.36221 12.8667 4.948V2.948C12.8667 2.21865 12.577 1.51918 12.0612 1.00345C11.5455 0.487729 10.846 0.197998 10.1167 0.197998H3.1167ZM8.64703 6.47833C8.93992 6.18543 8.93992 5.71056 8.64703 5.41767C8.35414 5.12477 7.87926 5.12477 7.58637 5.41767L4.58637 8.41767C4.45281 8.55123 4.38015 8.72263 4.3684 8.89736C4.36509 8.94616 4.36654 8.99542 4.37289 9.04443C4.39114 9.18599 4.44975 9.32333 4.54872 9.43785C4.562 9.45324 4.57588 9.46806 4.5903 9.48226L7.58637 12.4783C7.87926 12.7712 8.35414 12.7712 8.64703 12.4783C8.93992 12.1854 8.93992 11.7106 8.64703 11.4177L6.92736 9.698H18.1167C18.5309 9.698 18.8667 9.36221 18.8667 8.948C18.8667 8.53378 18.5309 8.198 18.1167 8.198H6.92736L8.64703 6.47833Z" fill="#4D4D4D"/>
</svg>
