<svg width="19" height="18" viewBox="0 0 19 18" fill="none" xmlns="http://www.w3.org/2000/svg">
<path fill-rule="evenodd" clip-rule="evenodd" d="M2.9124 0.197998C2.19816 0.197998 1.52241 0.498705 1.03111 1.01872C0.541169 1.53729 0.272827 2.23196 0.272827 2.948V14.948C0.272827 15.664 0.541169 16.3587 1.03111 16.8773C1.52241 17.3973 2.19816 17.698 2.9124 17.698H9.52592C10.2402 17.698 10.9159 17.3973 11.4072 16.8773C11.8972 16.3587 12.1655 15.664 12.1655 14.948V12.948C12.1655 12.5338 11.8297 12.198 11.4155 12.198C11.0013 12.198 10.6655 12.5338 10.6655 12.948V14.948C10.6655 15.2928 10.5357 15.6156 10.3169 15.8471C10.0995 16.0773 9.81397 16.198 9.52592 16.198H2.9124C2.62436 16.198 2.33886 16.0773 2.12144 15.8471C1.90265 15.6156 1.77283 15.2928 1.77283 14.948V2.948C1.77283 2.60317 1.90265 2.28043 2.12144 2.04885C2.33886 1.81872 2.62436 1.698 2.9124 1.698H9.52592C9.81397 1.698 10.0995 1.81872 10.3169 2.04885C10.5357 2.28043 10.6655 2.60317 10.6655 2.948V4.948C10.6655 5.36221 11.0013 5.698 11.4155 5.698C11.8297 5.698 12.1655 5.36221 12.1655 4.948V2.948C12.1655 2.23196 11.8972 1.53728 11.4072 1.01872C10.9159 0.498705 10.2402 0.197998 9.52592 0.197998H2.9124ZM15.7399 5.43293C15.4554 5.13184 14.9807 5.11837 14.6796 5.40283C14.3786 5.6873 14.3651 6.16198 14.6495 6.46306L16.2887 8.198H4.80203C4.38782 8.198 4.05203 8.53378 4.05203 8.948C4.05203 9.36221 4.38782 9.698 4.80203 9.698H16.2887L14.6495 11.4329C14.3651 11.734 14.3786 12.2087 14.6796 12.4932C14.9807 12.7776 15.4554 12.7642 15.7399 12.4631L18.57 9.46752C18.584 9.45301 18.5974 9.43791 18.6101 9.42225C18.7364 9.26785 18.7915 9.07575 18.7767 8.88853C18.7635 8.72147 18.6945 8.55829 18.5708 8.42924L15.7399 5.43293ZM18.0291 8.198H18.0275C17.829 8.19844 17.631 8.27723 17.4839 8.43293L16.9973 8.948L17.4839 9.46307L18.0291 8.948V8.198Z" fill="#4D4D4D"/>
</svg>
