<svg width="18" height="18" viewBox="0 0 18 18" fill="none" xmlns="http://www.w3.org/2000/svg">
<path fill-rule="evenodd" clip-rule="evenodd" d="M1.96584 7.21241C1.96584 4.37215 4.26833 2.06966 7.10859 2.06966C9.94886 2.06966 12.2513 4.37215 12.2513 7.21241C12.2513 10.0527 9.94886 12.3552 7.10859 12.3552C4.26833 12.3552 1.96584 10.0527 1.96584 7.21241ZM7.10859 0.56966C3.4399 0.56966 0.465839 3.54372 0.465839 7.21241C0.465839 10.8811 3.4399 13.8552 7.10859 13.8552C8.67272 13.8552 10.1106 13.3146 11.2455 12.41L15.8383 17.0028C16.1312 17.2957 16.6061 17.2957 16.899 17.0028C17.1919 16.7099 17.1919 16.235 16.899 15.9421L12.3062 11.3494C13.2107 10.2144 13.7513 8.77654 13.7513 7.21241C13.7513 3.54372 10.7773 0.56966 7.10859 0.56966Z" fill="#4D4D4D"/>
</svg>
