<svg width="20" height="20" viewBox="0 0 20 20" fill="none" xmlns="http://www.w3.org/2000/svg">
<path fill-rule="evenodd" clip-rule="evenodd" d="M1.72622 7.91456C1.72622 4.56374 4.4426 1.84737 7.79341 1.84737C11.1442 1.84737 13.8606 4.56374 13.8606 7.91456C13.8606 11.2654 11.1442 13.9817 7.79341 13.9817C4.4426 13.9817 1.72622 11.2654 1.72622 7.91456ZM7.79341 0.231987C3.55044 0.231987 0.11084 3.67159 0.11084 7.91456C0.11084 12.1575 3.55044 15.5971 7.79341 15.5971C9.62389 15.5971 11.3049 14.957 12.6246 13.8883L18.0253 19.289C18.3407 19.6044 18.8521 19.6044 19.1676 19.289C19.483 18.9736 19.483 18.4622 19.1676 18.1467L13.7669 12.7461C14.8357 11.4262 15.476 9.74517 15.476 7.91456C15.476 3.67159 12.0364 0.231987 7.79341 0.231987Z" fill="#121212"/>
</svg>
