<svg width="33" height="33" viewBox="0 0 33 33" fill="none" xmlns="http://www.w3.org/2000/svg">
<path fill-rule="evenodd" clip-rule="evenodd" d="M3.16675 6.4165C2.75253 6.4165 2.41675 6.75229 2.41675 7.1665C2.41675 7.58072 2.75253 7.9165 3.16675 7.9165H17.0834V8.49984V15.1665V22.4165H13.1675C12.8257 20.8903 11.4627 19.7498 9.83341 19.7498C8.2041 19.7498 6.84115 20.8903 6.49932 22.4165H5.25008V17.8332C5.25008 17.419 4.91429 17.0832 4.50008 17.0832C4.08587 17.0832 3.75008 17.419 3.75008 17.8332V23.1665C3.75008 23.5807 4.08587 23.9165 4.50008 23.9165H6.49932C6.84115 25.4427 8.2041 26.5832 9.83341 26.5832C11.4627 26.5832 12.8257 25.4427 13.1675 23.9165H17.8334H19.8327C20.1745 25.4427 21.5374 26.5832 23.1667 26.5832C24.7961 26.5832 26.159 25.4427 26.5008 23.9165H28.5001C28.9143 23.9165 29.2501 23.5807 29.2501 23.1665V15.1788C29.2513 15.1079 29.2425 15.0365 29.2231 14.9666C29.2038 14.8964 29.1745 14.8304 29.1369 14.7701L25.1432 8.11397C25.0077 7.88806 24.7635 7.74984 24.5001 7.74984H18.5834V7.1665C18.5834 6.75229 18.2476 6.4165 17.8334 6.4165H3.16675ZM26.5008 22.4165H27.7501V15.9165H18.5834V22.4165H19.8327C20.1745 20.8903 21.5374 19.7498 23.1667 19.7498C24.7961 19.7498 26.159 20.8903 26.5008 22.4165ZM7.91675 23.1672C7.91714 24.2254 8.77511 25.0832 9.83341 25.0832C10.892 25.0832 11.7501 24.225 11.7501 23.1665C11.7501 22.108 10.892 21.2498 9.83341 21.2498C8.77487 21.2498 7.91675 22.108 7.91675 23.1665C7.91675 23.1667 7.91675 23.167 7.91675 23.1672ZM18.5834 14.4165V9.24984H24.0754L27.1754 14.4165H18.5834ZM23.1667 21.2498C22.1082 21.2498 21.2501 22.108 21.2501 23.1665C21.2501 24.225 22.1082 25.0832 23.1667 25.0832C24.2253 25.0832 25.0834 24.225 25.0834 23.1665C25.0834 22.108 24.2253 21.2498 23.1667 21.2498Z" fill="#121212"/>
</svg>
