<svg width="21" height="20" viewBox="0 0 21 20" fill="none" xmlns="http://www.w3.org/2000/svg">
<path fill-rule="evenodd" clip-rule="evenodd" d="M20.33 0.432577C20.3117 0.409321 20.2919 0.386991 20.2706 0.365733C20.1428 0.237911 19.9762 0.163182 19.8028 0.148658C19.7578 0.14489 19.7123 0.145173 19.6669 0.149632C19.5995 0.156218 19.5327 0.171918 19.4687 0.196731L1.48557 6.69065C1.46601 6.69771 1.44676 6.70558 1.42786 6.71425C1.20156 6.81795 1.00979 6.98444 0.875347 7.19394C0.740902 7.40344 0.669434 7.64714 0.669434 7.89606C0.669434 8.14499 0.740902 8.38869 0.875347 8.59818C1.00701 8.80335 1.19366 8.96728 1.41387 9.07137L8.18129 12.4551L11.565 19.2225C11.6691 19.4427 11.833 19.6294 12.0382 19.761C12.2477 19.8955 12.4914 19.9669 12.7403 19.9669C12.9892 19.9669 13.2329 19.8955 13.4424 19.761C13.6519 19.6266 13.8184 19.4348 13.9221 19.2085C13.9308 19.1896 13.9387 19.1704 13.9457 19.1508L20.4412 1.1634C20.4549 1.12735 20.4657 1.09045 20.4737 1.05305C20.519 0.840326 20.4711 0.611712 20.33 0.432577ZM16.8319 2.74372L2.4788 7.92679L8.59217 10.9835L16.8319 2.74372ZM9.65285 12.0441L17.8927 3.80422L12.7096 18.1576L9.65285 12.0441Z" fill="#121212"/>
</svg>
